<?xml version="1.0" encoding="UTF-8"?>
<svg width="270px" height="81px" viewBox="0 0 270 81" version="1.1" xmlns="http://www.w3.org/2000/svg" xmlns:xlink="http://www.w3.org/1999/xlink">
    <!-- Generator: sketchtool 48.1 (47250) - http://www.bohemiancoding.com/sketch -->
    <title>C9EC1983-E4F9-4238-85AC-A3C3ADEBE6E4</title>
    <desc>Created with sketchtool.</desc>
    <defs></defs>
    <g id="Assets" stroke="none" stroke-width="1" fill="none" fill-rule="evenodd" transform="translate(-110.000000, -188.000000)">
        <g id="Logo" transform="translate(110.000000, 188.000000)" fill="#000000" fill-rule="nonzero">
            <path d="M132.62662,1.64281034 L132.62662,3.73763793 C131.86201,3.94432759 131.111906,4.17755172 130.347764,4.347 C129.267271,4.54744228 128.386437,5.3252213 128.058146,6.36874138 C125.792392,12.4297759 123.491542,18.4782414 121.205199,24.5322931 C118.282773,32.2698103 115.362998,40.0084138 112.445875,47.7481034 C112.376029,48.0358346 112.093777,48.2203143 111.800589,48.1698621 C111.134109,48.1324975 110.466004,48.1338965 109.799688,48.1740517 C109.36357,48.2057069 109.206343,48.0148448 109.073917,47.6545345 C108.013258,44.7683276 106.945425,41.8863103 105.870416,39.0084828 C103.06279,31.4671034 100.252669,23.9257241 97.440052,16.3843448 C97.4105719,16.3052069 97.3717331,16.2297931 97.2949913,16.0584828 C96.8799307,17.0230345 96.4934142,17.9168276 96.1101733,18.8115517 C91.9795321,28.4632759 87.8513865,38.1171724 83.7257366,47.7732414 C83.6468438,48.0386519 83.3844899,48.2065771 83.1089948,48.168 C82.3907106,48.1507759 81.6705546,48.1396034 80.9536742,48.1717241 C80.5713692,48.1889483 80.4230329,48.0371897 80.3074523,47.6978276 C78.7439168,43.1177586 77.1724263,38.5401724 75.5929809,33.965069 C72.4372097,24.7993448 69.2822184,15.6333103 66.1280069,6.46696552 C65.8622189,5.54935454 65.1376464,4.83416678 64.2132062,4.57696552 C63.2866898,4.30137931 62.3615771,4.01834483 61.4467591,3.74275862 L61.4467591,1.64513793 L79.5405026,1.64513793 L79.5405026,3.74275862 C78.3276083,3.95363793 77.1044194,4.15846552 75.884974,4.38284483 C75.4805637,4.44788402 75.083126,4.55027501 74.6978163,4.68868966 C73.9397574,4.9815 73.7460312,5.41163793 74.0001213,6.18160345 C74.5171924,7.74806897 75.0497054,9.30987931 75.5737955,10.8740172 C78.5277296,19.695569 81.4816638,28.5171207 84.4355979,37.3386724 C84.4884749,37.4964828 84.5516464,37.650569 84.6550607,37.9261552 C85.0237955,36.9797586 85.3508839,36.140431 85.6775043,35.3006379 C88.8304679,27.1962931 91.980312,19.0908621 95.1270364,10.9843448 C95.2019099,10.7701859 95.2032266,10.5373628 95.1307799,10.3223793 C94.6534835,9.01474138 94.1284575,7.72432759 93.6558406,6.41482759 C93.3955096,5.60637772 92.7608848,4.9713991 91.94974,4.70777586 C91.095286,4.41496552 90.2342808,4.13844828 89.3667244,3.88613793 C89.0391681,3.79303448 88.8861525,3.66781034 88.9118891,3.29912069 C88.9493241,2.76051724 88.9217158,2.21725862 88.9217158,1.64746552 L106.332738,1.64746552 L106.332738,3.7422931 C105.124211,4.02160345 103.913501,4.302 102.700607,4.58348276 C102.517702,4.62552855 102.33803,4.68044252 102.162946,4.74781034 C101.35201,5.06389655 101.142374,5.49263793 101.439983,6.30543103 C102.235165,8.4735 103.037834,10.638931 103.84799,12.8017241 C106.902062,20.9966897 109.957383,29.1910345 113.013951,37.3847586 C113.042028,37.4597069 113.080399,37.5304655 113.150589,37.6822241 C113.478146,36.7353621 113.785581,35.8601897 114.084125,34.9822241 C117.288873,25.545569 120.492842,16.1087586 123.696031,6.6717931 C124.081612,5.53546552 123.878995,5.0327069 122.721317,4.71894828 C121.438232,4.3712069 120.121456,4.1472931 118.819185,3.86984483 C118.620312,3.82748276 118.421438,3.78651724 118.191681,3.73810345 L118.191681,1.64281034 L132.62662,1.64281034 Z" id="Shape"></path>
            <path d="M138.435598,46.0103276 C138.077158,46.6201552 137.7,47.2262586 137.359341,47.8533103 C137.259938,48.1105743 136.994804,48.2651599 136.720607,48.2257241 C136.35,48.1977931 135.97565,48.2192069 135.67851,48.2192069 L135.350953,31.3632931 L137.511421,31.3632931 C137.712166,32.3669483 137.87922,33.4031897 138.130971,34.4189483 C138.560069,36.1488103 139.029411,37.8693621 139.506707,39.5861897 C140.109879,41.7587586 141.609151,43.2 143.495407,44.3004828 C145.732617,45.603931 148.183206,45.804569 150.692756,45.5825172 C152.672259,45.4532246 154.561692,44.7118748 156.096967,43.4620862 C158.446014,41.5069138 159.303744,38.9307414 159.121716,35.9532931 C159.016865,32.9834205 157.265958,30.3160617 154.574766,29.0263966 C152.587903,27.9808448 150.491075,27.1363966 148.419515,26.2579655 C146.030225,25.245 143.604905,24.3135 141.470641,22.7954483 C138.749584,20.8602931 136.822617,18.3902586 136.268111,15.0306207 C135.422548,9.90993103 137.3687,5.70956897 141.825806,3.00956897 C144.815555,1.24515168 148.247982,0.362825745 151.722686,0.465517241 C155.153268,0.449801098 158.531981,1.29859837 161.543761,2.93275862 C161.970988,2.34574138 162.403362,1.78060345 162.801109,1.19218966 C162.953532,0.903765466 163.272645,0.742792906 163.596603,0.790913793 C163.956862,0.811800444 164.31796,0.81428647 164.678475,0.798362069 L165.126291,15.2712931 L163.166568,15.2712931 C162.719688,13.8281897 162.314454,12.3916034 161.824523,10.9838793 C161.496967,10.0398103 161.046343,9.1367069 160.651404,8.21544828 C160.155627,7.12650001 159.389037,6.18122992 158.424021,5.46889655 C155.344991,3.03889655 151.926239,2.28103448 148.166828,3.46717241 C145.158458,4.41822414 143.393865,6.85101724 143.23617,9.99232759 C143.111231,12.5186897 143.669012,14.7908793 145.81357,16.3787586 C146.737192,17.0519974 147.72452,17.6341585 148.761577,18.117 C151.101265,19.224931 153.47792,20.2667586 155.853172,21.303 C158.147253,22.2422177 160.311727,23.4683271 162.294333,24.9517241 C168.862305,30.0901034 168.328388,40.4590345 161.324298,45.077431 C158.788807,46.748024 155.877183,47.7685064 152.849012,48.0478966 C148.740486,48.5246077 144.576984,48.1211251 140.63818,46.8645517 C139.910069,46.6285345 139.208163,46.3143103 138.435598,46.0103276 Z" id="Shape"></path>
            <path d="M199.967522,2.91925862 C200.394749,2.3355 200.831334,1.76989655 201.230953,1.17915517 C201.37436,0.907017478 201.673552,0.753172836 201.979653,0.794172414 C202.333414,0.826293103 202.692322,0.801155172 203.094281,0.801155172 L203.542565,15.2787414 L201.496274,15.2787414 C201.008666,12.948826 200.243652,10.6850316 199.217418,8.53525862 C197.622686,5.238 194.818804,3.63243103 191.326118,3.05984483 C189.35429,2.70312713 187.319274,3.00011998 185.533518,3.90522414 C183.146675,5.03108752 181.636651,7.4358291 181.666482,10.0635517 C181.636443,10.8619108 181.683452,11.6612958 181.806863,12.4507241 C182.1022,14.1863656 183.114438,15.7197448 184.598111,16.6790172 C186.305147,17.8716724 188.252236,18.5876379 190.12305,19.4581552 C192.659272,20.6359138 195.232461,21.7424483 197.724229,23.0072586 C200.045359,24.1339679 202.023668,25.8543077 203.456464,27.9920172 C205.005029,30.3974437 205.627717,33.2785369 205.209827,36.1045862 C204.541144,41.7215172 201.063899,45.048569 195.975078,46.965569 C192.743501,48.1828966 189.373414,48.3556034 185.964021,48.1498448 C183.398102,48.0320628 180.864726,47.5298602 178.449411,46.6601897 C177.922981,46.4628103 177.412461,46.2235345 176.862634,45.9898448 C176.504194,46.5996724 176.127504,47.2053103 175.789185,47.831431 C175.682238,48.1058761 175.398029,48.2695978 175.105529,48.2252586 C174.749428,48.1954655 174.388648,48.2187414 174.096655,48.2187414 L173.763484,31.3227931 C174.347938,31.3227931 175.010069,31.3023103 175.668925,31.3414138 C175.789653,31.3483966 175.963726,31.5811552 175.996482,31.7347759 C176.417626,33.6070862 176.806014,35.4877759 177.235113,37.3586897 C177.390468,38.0355517 177.651577,38.6877414 177.833137,39.3604138 C178.461577,41.6852069 180.013726,43.2446897 182.051594,44.388 C184.241542,45.6146379 186.6313,45.8013103 189.070659,45.5899655 C191.050371,45.4647818 192.941795,44.7295345 194.482357,43.4862931 C196.889896,41.4957414 197.745754,38.8688276 197.523951,35.8378448 C197.404143,33.0106643 195.762974,30.4668284 193.22922,29.1809483 C191.331733,28.1526207 189.321473,27.324 187.333206,26.4683793 C184.794645,25.3753448 182.185893,24.4317414 179.907972,22.815 C177.137314,20.8486552 175.198648,18.3362586 174.657244,14.9114483 C173.86175,9.88618966 175.698873,5.99958621 179.91312,3.22696552 C182.972028,1.21313793 186.412305,0.451086207 190.048648,0.46737931 C193.433959,0.432991547 196.773325,1.24842466 199.757886,2.83825862 C199.826187,2.86913624 199.896176,2.8961787 199.967522,2.91925862 Z" id="Shape"></path>
            <path d="M128.066568,73.0187069 L124.25662,80.7239483 L120.552894,73.238431 L120.459307,73.2617069 C120.459307,74.3764655 120.459307,75.491069 120.459307,76.6055172 C120.459307,77.4560172 120.455563,78.3069828 120.472877,79.1574828 C120.489255,79.9530517 120.512652,79.9488621 121.303934,80.0722241 C121.575338,80.1141207 122.038128,80.0210172 121.849081,80.6550517 L119.89357,80.6550517 C119.449029,80.6550517 119.004489,80.6406207 118.559948,80.6597069 C118.229584,80.6736724 118.120555,80.5447241 118.217886,80.1751034 C118.452007,80.1231898 118.688832,80.0841821 118.927279,80.0582586 C119.117375,80.0769075 119.30554,80.0076123 119.437609,79.8703204 C119.569678,79.7330285 119.630998,79.5429724 119.603917,79.3548621 C119.603917,77.9941552 119.62825,76.6329828 119.635737,75.2722759 C119.641352,74.2346379 119.621231,73.196069 119.645095,72.1588966 C119.653518,71.792069 119.52156,71.6254138 119.169671,71.5863103 C119.001213,71.5676897 118.837903,71.5053103 118.669445,71.4843621 C118.336742,71.4433966 118.227244,71.2734828 118.356395,70.8950172 C119.231438,70.8950172 120.13175,70.8773276 121.029723,70.9141034 C121.164489,70.9196897 121.330139,71.1580345 121.41156,71.3232931 C122.436811,73.3943793 123.448492,75.4719828 124.464853,77.5477241 C124.539255,77.6999483 124.618804,77.8493793 124.72643,78.0597931 C124.969289,77.5714655 125.187816,77.1329483 125.405407,76.6939655 C126.28747,74.9119655 127.176083,73.1332241 128.044107,71.3442414 C128.136407,71.0488599 128.428084,70.8616233 128.736655,70.8996724 C129.438562,70.9327241 130.140468,70.8996724 130.839567,70.9206207 C130.962634,70.9248103 131.081023,71.0733103 131.201282,71.1533793 C131.107695,71.2516034 131.032357,71.4010345 130.92052,71.4396724 C129.907903,71.7808966 129.906031,71.7748448 129.906031,72.8590345 C129.906031,74.9859828 129.925217,77.112931 129.892461,79.2394138 C129.884506,79.7584655 130.040329,79.9996034 130.549913,80.0266034 C130.686396,80.0197455 130.822675,80.0436141 130.948596,80.096431 C131.057626,80.1602069 131.185841,80.3031207 131.182565,80.4078621 C131.180225,80.4921207 130.99539,80.6406207 130.889168,80.6406207 C129.625737,80.6569138 128.362305,80.6513276 127.098873,80.6513276 C126.937435,80.3049828 127.008094,80.1336724 127.377296,80.0582586 C128.301473,79.8687931 128.156412,79.9772586 128.159688,79.0885862 C128.167175,77.2339655 128.159688,75.3793448 128.159688,73.5247241 L128.159688,73.0382586 L128.066568,73.0187069 Z" id="Shape"></path>
            <path d="M5.42854419,78.5132069 C6.09441941,76.8103448 6.69431542,75.1489138 7.39996534,73.5321724 C7.62741832,73.0002978 7.57281591,72.3905517 7.25443674,71.9070517 C7.10134567,71.7116352 6.88486967,71.5750839 6.64190641,71.5206724 C6.32979203,71.4233793 6.21280763,71.2772069 6.34757366,70.9108448 C7.46594454,70.9108448 8.60677643,70.9057241 9.74667244,70.9206207 C9.84025997,70.9206207 10.0162045,71.0775 10.004974,71.130569 C9.9794309,71.266389 9.89687503,71.3849255 9.77802426,71.456431 C8.9460312,71.7822931 8.93901213,71.7757759 9.25206239,72.6202241 C9.93088388,74.4512586 10.612513,76.2802759 11.2969497,78.1072759 C11.3311092,78.2003793 11.377435,78.2860345 11.459792,78.4675862 C11.80513,77.4653276 12.1233276,76.5505862 12.4354419,75.6344483 C12.8242981,74.492069 13.1930329,73.3427069 13.6020104,72.2077759 C13.7531542,71.7888103 13.6633102,71.6026034 13.2206412,71.5607069 C13.0328612,71.5482014 12.8489327,71.5018261 12.6778336,71.4238448 C12.5769677,71.3528352 12.513831,71.2402219 12.5061005,71.1175345 C12.5037608,71.051431 12.6502253,70.9215517 12.7316464,70.9201552 C13.6034142,70.9057241 14.4761179,70.9043276 15.3478856,70.9201552 C15.4645854,70.9507148 15.5566032,71.0399592 15.5902773,71.1552414 C15.5954246,71.253931 15.4751646,71.4433966 15.4007626,71.4480517 C14.7980589,71.4848276 14.6469151,71.9093793 14.4723744,72.3790862 C13.5023397,74.9887759 12.5070364,77.5896207 11.5243674,80.1932586 C11.5065858,80.2398103 11.4808492,80.2863621 11.4635355,80.3329138 C11.369948,80.5875517 11.310052,80.825431 10.927747,80.8198448 C10.5604159,80.8142586 10.5276603,80.5754483 10.4410919,80.3426897 C9.7042461,78.371069 8.96740035,76.4003793 8.23055459,74.4306207 C8.19545927,74.3375172 8.14819757,74.2444138 8.07660312,74.088 C7.58526863,75.2299138 7.11686308,76.3168966 6.65032929,77.4048103 C6.22216638,78.4033448 5.79213172,79.4014138 5.37239168,80.4036724 C5.26663778,80.6559828 5.15901213,80.8226379 4.82771231,80.8226379 C4.45850953,80.8226379 4.42668977,80.5787069 4.34526863,80.3436207 C3.42670711,77.6803966 2.50206239,75.0190345 1.59707106,72.3511552 C1.4445234,71.901931 1.26951473,71.5430172 0.734662045,71.4666724 C0.631247834,71.4522414 0.555909879,71.2395 0.467469671,71.1184655 C0.565268631,71.0486379 0.662131716,70.9187586 0.760866551,70.9173621 C1.93819757,70.9033966 3.11599653,70.9080517 4.2764818,70.9080517 C4.42996534,71.2665 4.32327556,71.4364138 3.98636049,71.4731897 C3.90166378,71.4825 3.81556326,71.4848276 3.73133449,71.4987931 C3.12769497,71.5993448 3.10149047,71.6412414 3.29194107,72.2119655 C3.94986135,74.1851379 4.60856153,76.1581552 5.26804159,78.1310172 C5.30454073,78.2413448 5.3564818,78.3442241 5.42854419,78.5132069 Z" id="Shape"></path>
            <path d="M75.1825997,76.1907414 C75.7548873,77.0491552 76.3795841,77.9792586 76.9958579,78.9144828 C77.2983648,79.5160494 77.8662034,79.9423088 78.5306932,80.0666379 C78.8648007,80.108069 78.9630676,80.2928793 78.8245581,80.6513276 C78.1016099,80.6939811 77.3764673,80.6827774 76.6551993,80.6178103 C76.2923447,80.487821 75.9880291,80.2332803 75.7970017,79.8999828 C75.2265858,79.0750862 74.7113865,78.2120172 74.1858925,77.3573276 C73.5663432,76.3499483 73.4456153,76.2922241 72.1658059,76.5263793 C72.1658059,77.5467931 72.1545754,78.5793103 72.1812478,79.6108966 C72.1845234,79.7305345 72.3787175,79.8902069 72.5195667,79.9511897 C72.735286,80.0419655 72.9912478,80.0349828 73.2102426,80.1201724 C73.3178683,80.162069 73.3810399,80.3175517 73.4643328,80.4218276 C73.3595147,80.499569 73.2551646,80.6434138 73.1489428,80.6448103 C71.8345061,80.6601724 70.5196014,80.6550517 69.2182669,80.6550517 C68.992721,80.2579655 69.1639861,80.1266897 69.5238302,80.0573276 C70.4597054,79.8767069 70.4597054,79.8678621 70.4597054,78.9163448 C70.4597054,76.8243103 70.4597054,74.7322759 70.4597054,72.6402414 C70.4597054,71.4764483 70.5649913,71.7031552 69.5238302,71.4843621 C69.239792,71.4247759 69.0282842,71.3372586 69.1607106,70.9722931 C69.1934662,70.9578621 69.2374523,70.9210862 69.2809705,70.9215517 C71.0240381,70.9336552 72.7689775,70.9071207 74.5092374,70.9881207 C75.1213896,71.0362024 75.7163833,71.2126192 76.2551127,71.5057759 C76.8928438,71.8295028 77.3339323,72.4399499 77.4391744,73.1444654 C77.5444166,73.8489809 77.3008291,74.5606512 76.785286,75.0548793 C76.2869794,75.4813113 75.7505167,75.8615153 75.1825997,76.1907414 Z M72.1644021,75.9142241 C72.7086135,75.8676724 73.162513,75.8318276 73.6150087,75.7843448 C75.2336049,75.6153621 76.027695,74.4543621 75.6271404,72.8674138 C75.530863,72.2575903 75.0625514,71.7721883 74.4540208,71.6514828 C73.7988774,71.572892 73.1378382,71.5546594 72.4793241,71.5970172 C72.3331223,71.6383908 72.2191214,71.7525075 72.1784402,71.8982069 C72.1569151,73.2035172 72.1644021,74.5097586 72.1644021,75.9142241 Z" id="Shape"></path>
            <path d="M34.7803986,80.6331724 L30.5783189,80.6331724 C30.405182,80.2519138 30.5652166,80.1211034 30.9269324,80.0526724 C31.8468977,79.8748448 31.8445581,79.8618103 31.8445581,78.9452069 C31.8445581,76.7153793 31.8337955,74.4850862 31.8539168,72.2552586 C31.8581282,71.8148793 31.7444194,71.5723448 31.2774177,71.5569828 C31.1421795,71.5395967 31.0082222,71.5134725 30.8763951,71.4787759 C30.5661525,71.4261724 30.4084575,71.2846552 30.5783189,70.9201552 C32.0317331,70.9201552 33.5029289,70.8736034 34.9685095,70.9392414 C35.7814469,70.9535824 36.5864014,71.1015974 37.3507799,71.3772931 C39.0770017,72.0690517 39.3498094,74.1131379 37.9169844,75.3048621 C37.4779893,75.6219142 37.0148974,75.9045577 36.5318891,76.1502414 C37.1266378,77.0421724 37.7532062,77.9722759 38.369948,78.9093621 C38.6804362,79.5284848 39.2692245,79.9630793 39.9548527,80.0792069 C40.2646274,80.1131897 40.342773,80.3119655 40.215026,80.6531897 C39.4784922,80.6531897 38.7115425,80.690431 37.9525477,80.6299138 C37.7358925,80.6126897 37.4883536,80.3478103 37.3475043,80.1355345 C36.6708666,79.1146552 35.9979723,78.0872586 35.3821664,77.031 C35.2202026,76.6111091 34.7796793,76.3664208 34.3353899,76.449569 C34.0684934,76.469785 33.800519,76.4718069 33.5333449,76.4556207 C33.5333449,77.5579655 33.5235182,78.5928103 33.547383,79.6271897 C33.5501906,79.7398448 33.727539,79.8953276 33.8576256,79.947931 C34.0688404,80.0128833 34.2858865,80.0573152 34.5057192,80.0806034 C34.7902253,80.1336724 34.9413692,80.2686724 34.7803986,80.6331724 Z M33.5319411,75.9146897 C34.0733449,75.8681379 34.5277123,75.8369483 34.9792721,75.7843448 C36.6381109,75.5902241 37.40974,74.4571552 36.997487,72.8408793 C36.9012443,72.2502863 36.4474653,71.7806858 35.8580589,71.6617241 C35.1884955,71.5815234 34.5130474,71.5612698 33.839844,71.6012069 C33.6946458,71.6452437 33.5829573,71.7612927 33.5450433,71.9075172 C33.5244541,73.209569 33.5319411,74.5120862 33.5319411,75.9146897 Z" id="Shape"></path>
            <path d="M146.887955,70.9117759 C147.673154,70.9117759 148.426066,70.8833793 149.174298,70.929931 C149.415532,70.9808911 149.629813,71.1176001 149.777002,71.3144483 C151.433969,73.3259483 153.075026,75.3514138 154.720763,77.3717586 C154.835407,77.5114138 154.958475,77.6464138 155.163899,77.8838276 C155.163899,77.4555517 155.163899,77.1417931 155.163899,76.8280345 C155.158752,75.3649138 155.167175,73.9013276 155.142374,72.4382069 C155.128804,71.6254138 155.103536,71.6249483 154.294003,71.5071724 C154.158769,71.4876207 154.0226,71.4755172 153.885962,71.4652759 C153.55279,71.4396724 153.425979,71.2846552 153.580399,70.9127069 C154.703449,70.9127069 155.846153,70.9075862 156.989324,70.9229483 C157.105535,70.9495695 157.199163,71.0349361 157.235927,71.1477931 C157.241075,71.2408966 157.112392,71.3419138 157.039393,71.4378103 C157.031438,71.4485172 157.007574,71.4471207 156.9926,71.4522414 C156.67721,71.549069 156.240624,71.5551207 156.080121,71.7673966 C155.908856,71.994569 155.979047,72.4167931 155.977175,72.7538276 C155.964541,75.2550517 155.963137,77.7562759 155.948163,80.2575 C155.927112,80.4489226 155.885702,80.6375824 155.824627,80.8203103 C155.634216,80.7424192 155.457711,80.6344232 155.301941,80.5005 C153.289185,78.053431 151.283761,75.6003103 149.285667,73.1411379 C149.182721,73.0149828 149.070416,72.8962759 148.897279,72.7007586 C148.878562,72.9391034 148.856568,73.0824828 148.857504,73.2253966 C148.870919,75.2159483 148.886516,77.2063448 148.904298,79.1965862 C148.911785,79.9283793 148.943137,79.9530517 149.672184,80.0494138 C149.85932,80.058642 150.044835,80.0886207 150.225286,80.1387931 C150.336187,80.1802241 150.412461,80.3175517 150.502773,80.4115862 C150.398891,80.4930517 150.295945,80.6443448 150.191127,80.6443448 C149.064801,80.661569 147.938475,80.6550517 146.821976,80.6550517 C146.606256,80.2123448 146.874853,80.0815345 147.183224,80.0857241 C147.82383,80.0950345 148.021768,79.8064138 148.020364,79.1914655 C148.014281,76.8098793 148.046568,74.4282931 148.074177,72.0467069 C148.078856,71.6612586 147.8374,71.6277414 147.548683,71.5811897 C146.841161,71.4578276 146.843033,71.4480517 146.887955,70.9117759 Z" id="Shape"></path>
            <path d="M254.231906,77.8237759 C254.231906,75.8281034 254.231906,73.9413621 254.231906,72.0546207 C254.231906,71.7622759 254.132704,71.5756034 253.783622,71.5737414 C253.513154,71.5737414 253.24409,71.4922759 252.973154,71.4638793 C252.645598,71.429431 252.515043,71.2813966 252.653085,70.9341207 L256.344645,70.9341207 C256.485026,71.2702241 256.375061,71.4382759 256.017088,71.469 C255.880919,71.4806379 255.74662,71.5132241 255.610451,71.5211379 C255.223466,71.5439483 255.083085,71.7618103 255.085893,72.1263103 C255.089168,72.5685517 255.066239,73.0107931 255.065771,73.4530345 C255.063276,75.716069 255.063276,77.9792586 255.065771,80.2426034 L255.065771,80.7947069 L254.929133,80.9050345 C254.726607,80.7753442 254.538391,80.6247703 254.367608,80.4558103 C252.552322,78.2433621 250.742964,76.0257931 248.939532,73.8031034 C248.653622,73.4521034 248.360693,73.1048276 247.978388,72.6476897 C247.978388,73.2370345 247.978388,73.6876552 247.978388,74.1373448 C247.983068,75.7876034 247.971837,77.4383276 247.999913,79.0885862 C248.014887,79.9618966 248.046707,79.961431 248.932045,80.0601207 C249.612894,80.1355345 249.612894,80.1355345 249.587158,80.6517931 C248.434159,80.6517931 247.276014,80.6569138 246.118804,80.6415517 C246.001036,80.6120331 245.907023,80.5239665 245.870329,80.4087931 C245.860035,80.3273276 245.996672,80.2225862 246.074818,80.136931 C246.093536,80.1159828 246.138925,80.1187759 246.172149,80.1103966 C247.115043,79.8720517 247.138908,79.8720517 247.146395,78.9056379 C247.163709,76.6246034 247.149203,74.343569 247.166049,72.0653276 C247.168856,71.6873276 246.965303,71.6500862 246.674714,71.5714138 C246.367747,71.4880862 245.780485,71.6351897 245.972808,70.9113103 C246.768302,70.9113103 247.572218,70.889431 248.371456,70.928069 C248.5474,70.9364483 248.748146,71.1310345 248.877764,71.2888448 C250.542062,73.3166379 252.200121,75.3493966 253.851941,77.3871207 C253.955823,77.5137414 254.067192,77.6343103 254.231906,77.8237759 Z" id="Shape"></path>
            <path d="M46.792825,80.6550517 C45.6501213,80.6550517 44.5401733,80.6611034 43.4302253,80.6452759 C43.3188562,80.6452759 43.2093588,80.5093448 43.0989255,80.4362586 C43.1962565,80.3291897 43.27487,80.1592759 43.3932582,80.1248276 C44.362825,79.8408621 44.3726516,79.8487759 44.3782669,78.8213793 C44.3909012,76.6097069 44.3862218,74.3989655 44.4114905,72.1863621 C44.4161698,71.7795 44.2790641,71.6277414 43.8799133,71.5560517 C43.635182,71.5095 43.139636,71.6384483 43.2009359,71.1543103 C43.2612998,70.6790172 43.6983536,70.9681034 43.9603986,70.9150345 C45.292617,70.6506207 46.1798267,71.1799138 46.9781282,72.2859828 C48.2911612,74.1056897 49.7857539,75.7941207 51.2078163,77.5374828 C51.2709879,77.6152241 51.3397747,77.6878448 51.4590988,77.8228448 C51.4913525,77.7007026 51.5135747,77.5761547 51.5255459,77.450431 C51.5082322,75.6982241 51.4759445,73.9464828 51.472669,72.1942759 C51.472669,71.778569 51.3650433,71.5537241 50.9074003,71.5513966 C50.6341164,71.546838 50.3629073,71.5032551 50.1020797,71.4219828 C49.9991334,71.3907931 49.9373657,71.2241379 49.8568804,71.1193966 C49.9542114,71.0491034 50.0510745,70.9192241 50.1493414,70.9182931 C51.292513,70.9038621 52.4356846,70.9089828 53.5582669,70.9089828 C53.7257886,71.3237586 53.53487,71.442 53.204974,71.481569 C52.3285269,71.5863103 52.3313345,71.4932069 52.320104,72.480569 C52.2906239,75.0665172 52.2985789,77.652931 52.2915598,80.2388793 C52.2915598,80.4222931 52.2915598,80.6061724 52.2915598,80.9664828 C52.0670565,80.8439363 51.8573162,80.696347 51.6663951,80.526569 C49.7010572,78.1300862 47.7407106,75.7286379 45.7853553,73.3222241 C45.6248527,73.1253103 45.4606066,72.9316552 45.2972964,72.7352069 C45.2593934,72.7691897 45.2154073,72.7901379 45.2154073,72.8106207 C45.2289775,74.9873793 45.254714,77.1641379 45.2561179,79.3413621 C45.2247156,79.5265341 45.2826844,79.7156165 45.4126189,79.8518364 C45.5425533,79.9880562 45.7293217,80.0555498 45.9168458,80.0340517 C46.1040208,80.0433621 46.2911958,80.0913103 46.4760312,80.1006207 C46.8255806,80.1197069 46.9144887,80.2919483 46.792825,80.6550517 Z" id="Shape"></path>
            <path d="M265.822721,75.7871379 L269.677123,75.7871379 C269.525979,75.9970862 269.427244,76.1334828 269.328977,76.2708103 C269.194211,76.4593448 268.951352,76.6432241 268.943865,76.8378103 C268.905494,77.8721897 268.925615,78.9088966 268.925615,80.0107759 C267.386411,80.6836985 265.692305,80.927795 264.024437,80.7169655 C263.062129,80.6148726 262.163235,80.1905661 261.475113,79.5136034 C259.976728,78.1291747 259.441048,75.9953468 260.109203,74.0726379 C260.72922,72.0746379 262.298683,71.1147414 264.289289,70.7744483 C265.569495,70.5258708 266.894443,70.6463583 268.108128,71.1217241 L268.82688,70.6441034 L269.036516,74.1555 C268.699601,74.2453448 268.521785,74.1843621 268.460485,73.845 C268.405269,73.5461379 268.270503,73.2617069 268.215286,72.9628448 C268.000971,71.7990517 267.163362,71.4015 266.124541,71.2911724 C263.682842,71.0318793 262.14052,72.2222069 261.819515,74.6517414 C261.61643,76.1879483 261.786291,77.6831897 262.760069,78.974069 C263.736051,80.2684016 265.529317,80.6349477 266.93922,79.8282931 C267.121405,79.7022847 267.240637,79.5047045 267.266776,79.2855 C267.304211,78.5406724 267.271456,77.7893276 267.286898,77.0412414 C267.293449,76.7125862 267.18208,76.5328966 266.842825,76.4826207 C266.591075,76.4444483 266.350087,76.3378448 266.098336,76.3015345 C265.766568,76.2535862 265.716499,76.085069 265.822721,75.7871379 Z" id="Shape"></path>
            <path d="M60.1884749,75.9086379 L60.1884749,79.9241897 C61.3342749,80.1755687 62.5273033,80.1111881 63.6390468,79.7379828 C63.8704927,79.6368437 64.0619429,79.4625826 64.1837262,79.2422069 C64.4275217,78.7971724 64.5884922,78.3083793 64.8173137,77.8540345 C64.8907799,77.7083276 65.0714038,77.6156897 65.2033622,77.4993103 L65.3648007,77.6096379 L64.92026,80.6285172 L57.1660659,80.6285172 C57.0214731,80.2677414 57.1529636,80.1243621 57.5006412,80.0573276 C58.4486828,79.8748448 58.4463432,79.8636724 58.4463432,78.8837586 C58.4463432,76.6553276 58.4365165,74.426431 58.455234,72.198 C58.4585095,71.7934655 58.3433969,71.5928276 57.9283362,71.5811897 C57.7771924,71.576069 57.6293241,71.4992586 57.4777123,71.4922759 C57.1108492,71.4745862 57.0565685,71.2762759 57.172617,70.8763966 L64.695182,70.8763966 L64.957227,73.818 C64.6296707,73.9935 64.4892894,73.886431 64.4041248,73.5996724 C64.3120513,73.2031572 64.1741855,72.8185672 63.9932756,72.453569 C63.8311767,72.1690442 63.5805856,71.9445808 63.2792028,71.8139483 C62.2837859,71.5013898 61.2268178,71.4347623 60.1997054,71.6198276 L60.1997054,75.2294483 C60.7802633,75.2974903 61.3676539,75.2818114 61.9437088,75.1828966 C62.280156,75.0790862 62.4790295,74.5409483 62.7438821,74.2006552 C62.8449567,74.0707759 62.9567938,73.9492759 63.0634835,73.8235862 C63.1270901,73.9643801 63.1710164,74.1131762 63.1940381,74.2658276 C63.2209916,75.3254914 63.181922,76.3857986 63.0770537,77.4406552 C62.9674336,77.3626208 62.8703946,77.2684382 62.7892721,77.1613448 C62.6779029,76.9532586 62.6236222,76.7149138 62.5145927,76.5049655 C62.3536206,76.0942868 61.932729,75.8449377 61.4930849,75.8997931 C61.0733449,75.9393621 60.6470537,75.9086379 60.1884749,75.9086379 Z" id="Shape"></path>
            <path d="M134.884419,80.6331724 C134.744038,80.2519138 134.893778,80.1211034 135.237712,80.055 C136.173588,79.8813621 136.169376,79.8687931 136.169376,78.9265862 C136.169376,76.6804655 136.159081,74.4343448 136.178735,72.1882241 C136.182478,71.7771724 136.054731,71.5923621 135.645286,71.5797931 C135.49461,71.5751379 135.346274,71.4978621 135.19513,71.4899483 C134.82078,71.4703966 134.783813,71.2641724 134.897054,70.8726724 L142.424766,70.8726724 L142.686811,73.8245172 L142.555789,73.9427586 C142.418683,73.8417414 142.237591,73.7677241 142.155234,73.6336552 C142.060761,73.4523382 142.000043,73.2555131 141.976014,73.0526897 C141.799601,72.0704483 141.137002,71.6603276 140.213293,71.6128448 C139.4674,71.5746724 138.718232,71.604931 137.927886,71.604931 L137.927886,75.2382931 C138.493936,75.3103867 139.067757,75.2956287 139.629307,75.1945345 C139.983068,75.0767586 140.194575,74.5404828 140.473934,74.1946034 C140.576412,74.0679828 140.690589,73.9511379 140.80149,73.8296379 C140.863316,73.9724129 140.905954,74.1226728 140.928302,74.2765345 C140.940156,75.1951552 140.940156,76.113931 140.928302,77.0328621 C140.900219,77.1649927 140.848723,77.2910969 140.776222,77.4052759 C140.673513,77.3172339 140.58219,77.2168452 140.50435,77.1064138 C140.4,76.9132241 140.344783,76.694431 140.244177,76.4989138 C140.079116,76.0898101 139.656366,75.8439867 139.217054,75.9016552 C138.79591,75.9393621 138.370087,75.909569 137.918527,75.909569 L137.918527,79.9255862 C139.052381,80.174449 140.232819,80.1131585 141.334471,79.7482241 C141.594605,79.6328307 141.81028,79.4368852 141.949341,79.1896034 C142.190797,78.7641207 142.333518,78.2837069 142.554385,77.8447241 C142.625979,77.7022759 142.813154,77.6170862 142.947452,77.5058276 L143.099064,77.6212759 L142.652184,80.6355 L134.884419,80.6331724 Z" id="Shape"></path>
            <path d="M113.823484,70.767 L114.104246,73.8603621 L113.936256,73.9730172 C113.794034,73.8504324 113.664688,73.7138009 113.550208,73.5652241 C113.465391,73.417271 113.410545,73.2542151 113.388769,73.0852759 C113.22312,72.0737069 112.551161,71.6538103 111.602652,71.6077241 C110.856759,71.5718793 110.105251,71.6002759 109.319584,71.6002759 L109.319584,75.2410862 C109.893276,75.2410862 110.516101,75.3756207 111.02662,75.1945345 C111.393484,75.0655862 111.612478,74.5176724 111.894645,74.154569 C111.993847,74.0274828 112.085095,73.8943448 112.180087,73.764 L112.320468,73.8426724 L112.320468,77.5062931 C112.179505,77.4085129 112.050426,77.2947864 111.935823,77.1673966 C111.867764,77.0308542 111.812772,76.8882426 111.771577,76.7414483 C111.537608,76.1730517 111.190399,75.803431 110.493172,75.8974655 C110.097926,75.9263712 109.701201,75.9294814 109.305546,75.9067759 L109.305546,79.9195345 C110.392966,80.1598297 111.524349,80.1165338 112.59,79.7938448 C112.912857,79.6632917 113.186474,79.4353717 113.372392,79.1421207 C113.58127,78.7354717 113.768699,78.3182678 113.933917,77.8922069 C114.047493,77.734333 114.184617,77.5946221 114.340555,77.4778966 L114.508544,77.5877586 C114.368163,78.5537069 114.232929,79.5205862 114.07149,80.4828103 C114.059324,80.555431 113.857175,80.6452759 113.743934,80.6457414 C111.28305,80.6550517 108.821698,80.6527241 106.345841,80.6527241 C106.177851,80.2747241 106.280797,80.1192414 106.670589,80.0508103 C107.598977,79.8874138 107.59617,79.8720517 107.59617,78.9056379 C107.59617,76.7102586 107.583536,74.5153448 107.605997,72.320431 C107.610676,71.8474655 107.508666,71.6086552 106.988787,71.5458103 C106.739844,71.5155517 106.197504,71.6491552 106.28688,71.1268448 C106.360815,70.698569 106.801612,70.9262069 107.062721,70.9220172 C109.045841,70.8889655 111.029896,70.8898966 113.013484,70.8717414 C113.285208,70.8516148 113.555616,70.8166483 113.823484,70.767 Z" id="Shape"></path>
            <path d="M18.5462392,80.6187414 C18.4245754,80.2649483 18.5429636,80.1248276 18.870052,80.0601207 C19.8358752,79.8641379 19.8335355,79.8529655 19.8335355,78.8963276 C19.8335355,76.7018793 19.8185615,74.5069655 19.844766,72.3129828 C19.8503813,71.8251207 19.7146794,71.6212241 19.2167938,71.5541897 C18.9313518,71.5155517 18.3581282,71.6361207 18.5541941,70.8838448 L26.0716118,70.8838448 L26.33974,73.8519828 L26.1993588,73.9609138 C26.0506335,73.8672455 25.9167418,73.7520887 25.8020797,73.6192241 C25.7142056,73.4538283 25.6575835,73.2737956 25.635026,73.088069 C25.5318497,72.2197368 24.771308,71.578592 23.8933622,71.6198276 C23.130156,71.5872414 22.3646101,71.6133103 21.5611612,71.6133103 L21.5611612,75.2410862 C22.1224028,75.2744418 22.6853027,75.2686864 23.2457366,75.2238621 C23.7871404,75.1465862 23.9228423,74.6126379 24.1315425,74.1885517 C24.2110663,74.0445961 24.297903,73.9047601 24.3917158,73.7695862 L24.5442634,73.8412759 L24.5442634,77.5188621 C24.3659792,77.355 24.232617,77.2781897 24.1699133,77.1636724 C24.0641594,76.9723448 24.0173657,76.7498276 23.9200347,76.5529138 C23.7441193,76.1151676 23.2979045,75.8463921 22.8264645,75.8942069 C21.5255979,75.9333103 21.524662,75.9053793 21.524662,77.2097586 L21.524662,79.9316379 C22.5274523,79.9316379 23.4768977,79.9674828 24.4221317,79.919069 C25.0420555,79.9002941 25.5814017,79.4915159 25.7641768,78.9019138 C25.8877298,78.5494168 26.032106,78.2044884 26.1965511,77.868931 C26.3028658,77.7231309 26.4310076,77.5943959 26.5765165,77.4872069 L26.7468458,77.5891552 L26.3065165,80.6173448 L18.5462392,80.6187414 Z" id="Shape"></path>
            <path d="M232.424142,70.9331897 L236.529827,70.9331897 C236.686118,71.3186379 236.500815,71.4224483 236.17279,71.4918103 C235.126482,71.7059483 235.253293,71.4890172 235.249549,72.5978793 C235.24487,74.0954483 235.24253,75.5930172 235.252825,77.0905862 C235.254501,77.4132449 235.288358,77.7349418 235.353899,78.0509483 C235.516054,79.1382045 236.419691,79.9650022 237.522322,80.0349828 C238.705686,80.2183859 239.851132,79.5320452 240.241508,78.4056724 C240.404867,77.905735 240.490705,77.3839545 240.496066,76.8582931 C240.528354,75.3104483 240.496066,73.7612069 240.516187,72.212431 C240.521334,71.8130172 240.40435,71.6016724 239.988821,71.577 C239.819896,71.5667586 239.65565,71.5020517 239.486724,71.4801724 C239.171802,71.4392069 239.082426,71.2725517 239.194731,70.9485517 L242.388406,70.9485517 C242.515685,71.2883793 242.412738,71.469 242.043536,71.496931 C241.537227,71.5351034 241.392634,71.7990517 241.394974,72.3087931 C241.402929,74.0940517 241.437088,75.8858276 241.297175,77.6622414 C241.13948,79.6732759 239.653778,80.8612759 237.597192,80.8114655 C237.192723,80.8212412 236.788222,80.7933438 236.388977,80.7281379 C234.524714,80.325931 233.555615,79.0564655 233.528943,76.9807241 C233.509289,75.4491724 233.493847,73.9166897 233.539705,72.386069 C233.557019,71.8004483 233.365633,71.5304483 232.798492,71.4932069 C232.468128,71.4703966 232.272062,71.3451724 232.424142,70.9331897 Z" id="Shape"></path>
            <path d="M179.334749,80.4129828 L178.734385,80.8938621 L178.608977,80.8040172 L178.608977,77.2330345 L179.025442,77.2330345 C179.18688,77.8382069 179.313224,78.4531552 179.515841,79.041569 C179.835442,79.9698103 180.926205,80.4381207 182.079671,80.19 C183.042123,80.0434053 183.714447,79.1641031 183.599532,78.2022414 C183.564038,77.5374167 183.147185,76.9522396 182.528423,76.6986207 C181.835407,76.3727586 181.117591,76.0971724 180.426447,75.7675862 C179.633787,75.4513846 179.031718,74.7895805 178.794281,73.9734828 C178.465975,72.8068291 179.048818,71.5773728 180.16253,71.0872759 C181.299619,70.5063103 182.631837,70.524931 184.054835,71.1338276 L184.84331,70.6082586 L184.84331,73.8021724 C184.541958,73.9511379 184.422166,73.7854138 184.330919,73.4688621 C184.131577,72.7668621 183.940659,72.0592759 183.260277,71.6188966 C182.729305,71.2590683 182.068375,71.1439148 181.446083,71.3028103 C180.851206,71.4067025 180.39132,71.8799991 180.307123,72.4749828 C180.193414,73.1639483 180.315078,73.7933276 180.97721,74.1536379 C181.639341,74.5139483 182.330953,74.7974483 183.006187,75.1228448 C183.331871,75.2705616 183.648863,75.4365528 183.955633,75.6200172 C184.834055,76.1423026 185.342489,77.1117301 185.270611,78.1272756 C185.198733,79.1428211 184.558765,80.031806 183.615442,80.4264828 C182.355017,80.9501918 180.943924,80.9891815 179.656222,80.5358793 C179.528007,80.4981724 179.404003,80.4399828 179.334749,80.4129828 Z" id="Shape"></path>
            <path d="M93.1546794,71.1347586 L93.7746967,70.6943793 L93.915078,70.7772414 L93.915078,73.8152069 C93.607175,73.9381034 93.5206066,73.7528276 93.4331023,73.4628103 C93.2281456,72.7831552 93.0503293,72.0825517 92.3961525,71.6440345 C91.8571402,71.2648086 91.1777183,71.1406936 90.5384402,71.3046724 C89.9324194,71.4653552 89.4782083,71.9657883 89.3791875,72.5818945 C89.2801668,73.1980007 89.5548837,73.8143785 90.0803293,74.1550345 C90.8449393,74.5586379 91.6320104,74.925 92.4270364,75.2657586 C93.9712305,75.9281897 94.7335009,77.2991379 94.2618198,78.7413103 C93.8345927,80.0489483 92.7798614,80.595 91.5009879,80.7756207 C90.4588894,80.9331797 89.3933477,80.8067289 88.417747,80.4097241 L87.8300173,80.8924655 L87.7074177,80.8030862 L87.7074177,77.2428103 C88.0120451,77.1096724 88.1753553,77.2018448 88.2432062,77.6263966 C88.3243703,78.1291586 88.4558918,78.6225812 88.6358059,79.0992931 C88.995182,80.0512759 90.2871577,80.5084138 91.439688,80.1290172 C92.3841633,79.8293748 92.9178477,78.8368315 92.6441594,77.8889483 C92.5215486,77.3649743 92.1571916,76.9294896 91.6614905,76.7144483 C91.1088562,76.4481724 90.5215945,76.2517241 89.9769151,75.9696207 C89.4664135,75.736786 88.9899393,75.4362823 88.5604679,75.0762931 C88.0121971,74.5683856 87.7320298,73.8360318 87.8021285,73.0940034 C87.8722272,72.351975 88.2846468,71.6843741 88.9184402,71.2869828 C90.089688,70.5100345 91.6029983,70.4602241 93.1546794,71.1347586 Z" id="Shape"></path>
            <path d="M161.684142,80.4083276 L161.134783,80.8892069 L160.986447,80.8054138 L160.986447,77.2335 C161.309792,77.099431 161.449237,77.2670172 161.518492,77.6101034 C161.602342,78.0600283 161.71297,78.5046036 161.849792,78.9414828 C162.180624,79.9446724 163.250797,80.4483621 164.44591,80.1895345 C164.926996,80.1174068 165.358343,79.8548722 165.641926,79.461593 C165.925509,79.0683137 166.037242,78.5776921 165.951733,78.1012241 C165.904416,77.5270435 165.55184,77.0219599 165.027556,76.7772931 C164.451993,76.4840172 163.837591,76.2652241 163.259688,75.9766034 C162.794333,75.766871 162.354843,75.5044477 161.949931,75.1945345 C161.351571,74.7035402 161.02507,73.9576626 161.071328,73.1874046 C161.117586,72.4171466 161.531033,71.715248 162.183899,71.2986207 C163.282383,70.5949925 164.651197,70.4512884 165.87312,70.9113103 C166.082756,70.9769483 166.282565,71.0728448 166.426222,71.130569 L167.159012,70.6492241 C167.205806,71.5709483 167.243241,72.3506897 167.2774,73.1308966 C167.286759,73.3496897 167.2774,73.5694138 167.2774,73.7951897 C166.949844,73.9064483 166.788873,73.8342931 166.71026,73.5028448 C166.625343,73.1562841 166.506382,72.8188681 166.355095,72.4954655 C165.889201,71.4744123 164.713544,70.9800513 163.652756,71.3591379 C163.12549,71.5051314 162.737992,71.9519371 162.670087,72.4922069 C162.584922,73.1234483 162.643882,73.7523621 163.274194,74.1061552 C163.882513,74.4473793 164.528267,74.7197069 165.156239,75.0255517 C165.52357,75.2043103 165.90026,75.3686379 166.250277,75.5762586 C167.17483,76.0514953 167.725859,77.0290255 167.651282,78.0616552 C167.618697,79.1527128 166.914051,80.1111302 165.878735,80.472569 C164.622421,80.9558654 163.232598,80.9697579 161.966776,80.5116724 C161.856343,80.4772241 161.750589,80.432069 161.684142,80.4083276 Z" id="Shape"></path>
            <path d="M212.315459,76.0790172 L212.315459,79.826431 C212.765615,79.9148793 213.19565,80.0126379 213.630832,80.0806034 C213.9626,80.1318103 214.069289,80.2891552 213.951369,80.6271207 L209.322062,80.6271207 C209.181681,80.2547069 209.333293,80.1206379 209.672548,80.0563966 C210.608423,79.878569 210.608423,79.8701897 210.608423,78.935431 C210.608423,76.6897759 210.595789,74.4441207 210.619653,72.198931 C210.624333,71.7757759 210.464298,71.6244828 210.084801,71.5877069 C209.881716,71.5681552 209.68331,71.5057759 209.480225,71.4862241 C209.142374,71.4531724 209.098388,71.2646379 209.213033,70.8847759 L216.734662,70.8847759 L217.000919,73.8566379 C216.682253,73.9497414 216.507712,73.9031897 216.446412,73.5866379 C216.407574,73.3878621 216.310243,73.2007241 216.27234,73.0019483 C216.149558,72.1739097 215.418596,71.5714401 214.577938,71.6053966 C213.948472,71.5675651 213.317248,71.5688089 212.687938,71.6091207 C212.549896,71.616569 212.313588,71.8232586 212.309376,71.9428966 C212.280364,73.0787586 212.292062,74.2155517 212.292062,75.4207759 C212.943508,75.4927698 213.601735,75.4771117 214.248977,75.3742241 C214.585425,75.276 214.773068,74.6889828 215.039792,74.331 C215.151436,74.1978655 215.27147,74.0719222 215.399168,73.953931 L215.517088,74.0470345 L215.517088,77.8479828 C215.291075,77.651069 215.098752,77.5630862 215.043536,77.4225 C214.520381,76.0846034 214.528804,76.0818103 213.095043,76.0818103 L212.315459,76.0790172 Z" id="Shape"></path>
            <path d="M223.772912,71.4238448 C222.987712,71.5332414 222.279723,71.6002759 221.589047,71.7497069 C221.355157,71.8360069 221.164962,72.010663 221.059809,72.2357069 C220.863324,72.6497498 220.704678,73.0805377 220.585789,73.5228621 C220.502028,73.8161379 220.375685,73.9311207 220.098666,73.8231207 L220.098666,70.8405517 L229.136412,70.8405517 C229.152322,71.1063621 229.178995,71.4345517 229.189757,71.7636724 C229.207539,72.3078621 229.23,72.8529828 229.216898,73.3967069 C229.182765,73.5683669 229.120645,73.7333192 229.032998,73.8850345 C228.888312,73.7584855 228.762287,73.6122699 228.658648,73.4507069 C228.530145,73.0649139 228.379534,72.68676 228.207556,72.3181034 C228.049146,72.030912 227.793959,71.8085314 227.486932,71.6901207 C226.822141,71.5620264 226.150224,71.4737298 225.474801,71.4257069 C225.474801,71.7897414 225.474801,72.0406552 225.474801,72.291569 C225.474801,74.6401034 225.484627,76.9886379 225.46591,79.3371724 C225.462634,79.7561379 225.559497,79.9837759 226.015737,79.9809828 C226.202386,79.9993287 226.387834,80.0282376 226.571179,80.067569 C226.898735,80.1038793 227.027418,80.2588966 226.898735,80.6187414 L222.35974,80.6187414 C222.208596,80.2463276 222.366759,80.1150517 222.73409,80.0601207 C223.774783,79.9018448 223.77338,79.8916034 223.77338,78.8386034 L223.77338,72.1481897 C223.772912,71.9624483 223.772912,71.7767069 223.772912,71.4238448 Z" id="Shape"></path>
            <path d="M192.376638,71.4703966 C191.759428,71.5216034 191.200711,71.5597759 190.645269,71.616569 C190.096578,71.6333618 189.631018,72.0222093 189.519411,72.5569138 C189.437689,72.8865288 189.326985,73.2083549 189.188579,73.5186724 C189.082849,73.6770807 188.953278,73.8183849 188.804402,73.9376379 L188.707071,73.8319655 L188.707071,70.8405517 L197.793951,70.8405517 L197.793951,73.8571034 C197.502426,73.9818621 197.355026,73.8487241 197.264246,73.5172759 C197.157088,73.1257759 196.980676,72.7538276 196.859012,72.3660517 C196.742752,71.9603658 196.388337,71.6671022 195.966187,71.6272759 C195.363951,71.537431 194.753293,71.5057759 194.105199,71.4452586 C194.093501,71.6873276 194.078995,71.8516552 194.078995,72.0164483 C194.078995,74.4492414 194.087886,76.881569 194.0687,79.3143621 C194.065425,79.7542759 194.158076,79.9888966 194.646603,79.9814483 C194.886,79.9832401 195.122834,80.0306464 195.344298,80.1211034 C195.460048,80.1923523 195.536608,80.3124296 195.552062,80.4469655 C195.558614,80.5074828 195.378925,80.648069 195.282062,80.649 C193.931282,80.6626552 192.580503,80.6626552 191.229723,80.649 C191.123969,80.649 191.020087,80.4939828 190.915737,80.4111207 C191.000901,80.3063793 191.065945,80.150431 191.175442,80.1085345 C191.381441,80.0248499 191.602472,79.9839774 191.824939,79.988431 C192.321421,80.013569 192.415945,79.7691724 192.413137,79.3320517 C192.397227,76.8997241 192.406118,74.466931 192.404714,72.0341379 C192.405182,71.8786552 192.390208,71.7287586 192.376638,71.4703966 Z" id="Shape"></path>
            <path d="M100.382444,80.6550517 C99.7834835,80.6550517 99.1840555,80.6685517 98.5860312,80.6443448 C98.4582842,80.6392241 98.3361525,80.4967759 98.2116811,80.4176379 C98.3258579,80.3012586 98.422253,80.1131897 98.5570191,80.0801379 C99.539688,79.839 99.539688,79.8473793 99.539688,78.8260345 C99.539688,76.6469483 99.5293934,74.4683276 99.5481109,72.2897069 C99.5518544,71.8432759 99.4680936,71.5658276 98.955234,71.5737414 C98.8009132,71.5784895 98.6479209,71.5440441 98.5106932,71.4736552 C98.394384,71.3830209 98.2927497,71.2751613 98.2093414,71.1538448 C98.3310052,71.0723793 98.452201,70.9210862 98.5748007,70.9210862 C99.7895667,70.9033966 101.004333,70.9033966 102.219099,70.9210862 C102.337955,70.9210862 102.453068,71.0821552 102.571924,71.1682759 C102.46851,71.2730172 102.381473,71.441069 102.258873,71.4727241 C101.242513,71.7362069 101.240173,71.7282931 101.240173,72.765 C101.240173,74.9440862 101.249532,77.1227069 101.232218,79.3017931 C101.228943,79.7263448 101.299601,79.9949483 101.793744,79.986569 C101.965273,79.9836658 102.135266,80.0191431 102.291161,80.0903793 C102.40487,80.1443793 102.478336,80.2817069 102.571924,80.3822586 C102.457747,80.4730345 102.346846,80.6368966 102.228925,80.6420172 C101.615459,80.6685517 100.998718,80.6545862 100.382444,80.6550517 Z" id="Shape"></path>
            <path d="M205.450347,80.1513621 L205.450347,80.6266552 L201.200069,80.6266552 C201.039567,80.244 201.204281,80.1183103 201.543536,80.0582586 C202.47286,79.893 202.471456,79.8836897 202.471456,78.9652241 C202.471456,76.7377241 202.460225,74.5102241 202.480815,72.2827241 C202.485026,71.8232586 202.364298,71.6147069 201.877175,71.5518621 C201.592669,71.5150862 201.030676,71.6393793 201.16825,70.9518103 L205.421334,70.9518103 C205.565927,71.292569 205.455026,71.4298966 205.069445,71.5057759 C203.98149,71.7189828 204.148544,71.5574483 204.145269,72.6099828 C204.13825,74.8202586 204.160711,77.0323966 204.129827,79.2412759 C204.122808,79.758931 204.2674,79.9944828 204.789619,80.0121724 C205.013563,80.0390531 205.234671,80.085632 205.450347,80.1513621 Z" id="Shape"></path>
            <polygon id="Shape" points="174.879983 75.6004655 174.879983 76.6744138 171.319445 76.6744138 171.319445 75.6004655"></polygon>
        </g>
    </g>
</svg>